<svg width="200" height="61" viewBox="0 0 200 61" fill="none" xmlns="http://www.w3.org/2000/svg">
<path d="M138.504 0C136.141 0 134.219 1.89952 134.219 4.20409L133.903 28.0273C133.333 28.4105 132.769 28.8155 132.234 29.2535C131.591 29.779 131.512 30.7315 132.053 31.3555C132.595 31.9796 134.003 31.8755 134.646 31.3555C137.028 27.8521 142.657 25.7978 148.434 25.7978C158.983 25.7978 166.029 32.0346 166.029 40.6338C166.029 41.4495 166.029 42.7501 166.029 44.0041C166.029 44.0041 165.762 44.0041 167.206 44.0041C167.206 43.6702 167.222 42.401 167.206 42.0671H191.754C193.942 42.0671 196.466 41.9601 197.245 39.8854L199.799 29.6914C200.16 28.728 200.031 27.7536 199.439 26.9325C198.694 25.9033 197.245 25.2245 195.739 25.2245H171.436L165.482 3.89754C164.957 1.49444 163.294 0 161.196 0H138.504ZM189.075 6.91923C182.703 6.91923 178.88 10.5157 178.88 16.5536V22.4218H187.722V16.8164C187.722 13.5319 188.709 12.7382 188.985 12.6999C189.403 12.7272 189.803 12.5849 190.113 12.3057C190.423 12.0266 190.609 11.6215 190.609 11.2109V8.40818C190.609 7.59255 189.916 6.91923 189.075 6.91923ZM141.437 7.00682H159.436L162.955 19.6191H141.437V7.00682Z" fill="#F7FA46"/>
<path d="M183.711 44.9334C183.711 44.9334 185.078 47.6117 184.534 49.2331C183.09 53.5328 179.379 53.5327 179.379 53.5327C179.379 53.5327 175.87 53.5328 174.426 50.6663C172.982 47.7999 174.6 44.9334 174.6 44.9334H168.691C168.138 46.2472 167.834 47.665 167.834 49.1375C167.834 55.3177 173.016 60.3484 179.382 60.3484C185.749 60.3484 190.931 55.3177 190.931 49.1375C190.931 47.1715 190.931 45.247 190.31 44.9335L183.711 44.9334Z" fill="#F7FA46"/>
<path d="M12.8962 29.2746C16.1311 29.2746 18.9581 29.9329 21.3771 31.2496C23.8251 32.5663 25.7049 34.395 27.0164 36.7358C28.3279 39.0766 28.9836 41.7393 28.9836 44.7238C28.9836 47.679 28.3279 50.3417 27.0164 52.7117C25.7049 55.0817 23.8251 56.9544 21.3771 58.3296C18.9581 59.6755 16.1311 60.3485 12.8962 60.3485H0V29.2746H12.8962ZM12.0219 51.6583C14.2077 51.6583 15.9417 51.0585 17.224 49.8589C18.5064 48.6592 19.1475 46.9475 19.1475 44.7238C19.1475 42.5 18.5064 40.7883 17.224 39.5887C15.9417 38.389 14.2077 37.7892 12.0219 37.7892H9.70492V51.6583H12.0219Z" fill="#028001"/>
<path d="M56.3569 47.7522C56.3569 48.4251 56.3132 49.0688 56.2258 49.6833H40.6192C40.7649 51.8193 41.6538 52.8873 43.2859 52.8873C44.335 52.8873 45.0928 52.4045 45.5591 51.4389H55.8323C55.4826 53.1945 54.7394 54.7745 53.6028 56.179C52.4953 57.5542 51.0819 58.6514 49.3624 59.4707C47.672 60.2607 45.8068 60.6557 43.7667 60.6557C41.3186 60.6557 39.1329 60.1437 37.2094 59.1196C35.315 58.0955 33.8287 56.6325 32.7503 54.7306C31.7012 52.7995 31.1766 50.5465 31.1766 47.9716C31.1766 45.3967 31.7012 43.1584 32.7503 41.2565C33.8287 39.3253 35.315 37.8477 37.2094 36.8236C39.1329 35.7995 41.3186 35.2875 43.7667 35.2875C46.2148 35.2875 48.386 35.7995 50.2804 36.8236C52.2039 37.8184 53.6902 39.2522 54.7394 41.1248C55.8177 42.9974 56.3569 45.2065 56.3569 47.7522ZM46.5208 45.426C46.5208 44.6067 46.2585 43.9923 45.7339 43.5826C45.2094 43.1437 44.5536 42.9243 43.7667 42.9243C42.0472 42.9243 41.0418 43.7582 40.7503 45.426H46.5208Z" fill="#028001"/>
<path d="M83.2951 47.7522C83.2951 48.4251 83.2514 49.0688 83.1639 49.6833H67.5574C67.7031 51.8193 68.592 52.8873 70.224 52.8873C71.2732 52.8873 72.031 52.4045 72.4973 51.4389H82.7705C82.4208 53.1945 81.6776 54.7745 80.541 56.179C79.4335 57.5542 78.02 58.6514 76.3005 59.4707C74.6102 60.2607 72.745 60.6557 70.7049 60.6557C68.2568 60.6557 66.071 60.1437 64.1475 59.1196C62.2532 58.0955 60.7669 56.6325 59.6885 54.7306C58.6393 52.7995 58.1148 50.5465 58.1148 47.9716C58.1148 45.3967 58.6393 43.1584 59.6885 41.2565C60.7669 39.3253 62.2532 37.8477 64.1475 36.8236C66.071 35.7995 68.2568 35.2875 70.7049 35.2875C73.153 35.2875 75.3242 35.7995 77.2186 36.8236C79.1421 37.8184 80.6284 39.2522 81.6776 41.1248C82.7559 42.9974 83.2951 45.2065 83.2951 47.7522ZM73.459 45.426C73.459 44.6067 73.1967 43.9923 72.6721 43.5826C72.1475 43.1437 71.4918 42.9243 70.7049 42.9243C68.9854 42.9243 67.98 43.7582 67.6885 45.426H73.459Z" fill="#028001"/>
<path d="M96.0693 40.1592C97.0602 38.7255 98.2697 37.5844 99.6977 36.7358C101.126 35.858 102.612 35.4191 104.157 35.4191V45.821H101.403C99.5666 45.821 98.2114 46.1429 97.3371 46.7866C96.4919 47.4303 96.0693 48.5714 96.0693 50.21V60.3485H86.3644V35.5947H96.0693V40.1592Z" fill="#028001"/>
<path d="M130.64 47.7522C130.64 48.4251 130.596 49.0688 130.509 49.6833H114.902C115.048 51.8193 115.937 52.8873 117.569 52.8873C118.618 52.8873 119.376 52.4045 119.842 51.4389H130.115C129.765 53.1945 129.022 54.7745 127.886 56.179C126.778 57.5542 125.365 58.6514 123.645 59.4707C121.955 60.2607 120.09 60.6557 118.05 60.6557C115.601 60.6557 113.416 60.1437 111.492 59.1196C109.598 58.0955 108.111 56.6325 107.033 54.7306C105.984 52.7995 105.459 50.5465 105.459 47.9716C105.459 45.3967 105.984 43.1584 107.033 41.2565C108.111 39.3253 109.598 37.8477 111.492 36.8236C113.416 35.7995 115.601 35.2875 118.05 35.2875C120.498 35.2875 122.669 35.7995 124.563 36.8236C126.487 37.8184 127.973 39.2522 129.022 41.1248C130.101 42.9974 130.64 45.2065 130.64 47.7522ZM120.804 45.426C120.804 44.6067 120.541 43.9923 120.017 43.5826C119.492 43.1437 118.836 42.9243 118.05 42.9243C116.33 42.9243 115.325 43.7582 115.033 45.426H120.804Z" fill="#028001"/>
<path d="M152.682 39.8959C152.303 39.2814 151.764 38.8133 151.064 38.4914C150.365 38.1403 149.52 37.9647 148.529 37.9647C146.663 37.9647 145.221 38.5792 144.201 39.8081C143.181 41.0078 142.671 42.6609 142.671 44.7677C142.671 47.1962 143.239 49.0103 144.376 50.21C145.512 51.4096 147.261 52.0095 149.622 52.0095C151.866 52.0095 153.673 51.1024 155.042 49.2883H147.305V42.3976H163.086V52.1411C161.745 54.4527 159.895 56.4423 157.534 58.1101C155.173 59.7487 152.186 60.568 148.572 60.568C145.367 60.568 142.569 59.9096 140.179 58.5929C137.818 57.247 135.997 55.3743 134.714 52.975C133.461 50.5757 132.835 47.8399 132.835 44.7677C132.835 41.6954 133.461 38.9596 134.714 36.5603C135.997 34.161 137.818 32.303 140.179 30.9863C142.54 29.6403 145.308 28.9673 148.485 28.9673C152.536 28.9673 155.829 29.9475 158.365 31.908C160.929 33.8684 162.445 36.531 162.911 39.8959H152.682Z" fill="#F7FA46"/>
</svg>
